<svg xmlns="http://www.w3.org/2000/svg" viewBox="0 0 520 128" width="520" height="128" role="img" aria-label="AXIOM">
  <!-- Seal + wordmark. Text uses currentColor so it reads on paper (ink) and on slate (ivory). -->
  <g>
    <circle cx="64" cy="64" r="62" fill="#fbf7ef"/>
    <circle cx="64" cy="64" r="60" fill="none" stroke="#c2410c" stroke-width="4"/>
    <g stroke="#c2410c" stroke-width="2.4" transform="translate(64 64)">
      <g id="t"><line x1="0" y1="-53" x2="0" y2="-46"/></g>
      <use href="#t" transform="rotate(7.5)"/><use href="#t" transform="rotate(15)"/><use href="#t" transform="rotate(22.5)"/>
      <use href="#t" transform="rotate(30)"/><use href="#t" transform="rotate(37.5)"/><use href="#t" transform="rotate(45)"/>
      <use href="#t" transform="rotate(52.5)"/><use href="#t" transform="rotate(60)"/><use href="#t" transform="rotate(67.5)"/>
      <use href="#t" transform="rotate(75)"/><use href="#t" transform="rotate(82.5)"/><use href="#t" transform="rotate(90)"/>
      <use href="#t" transform="rotate(97.5)"/><use href="#t" transform="rotate(105)"/><use href="#t" transform="rotate(112.5)"/>
      <use href="#t" transform="rotate(120)"/><use href="#t" transform="rotate(127.5)"/><use href="#t" transform="rotate(135)"/>
      <use href="#t" transform="rotate(142.5)"/><use href="#t" transform="rotate(150)"/><use href="#t" transform="rotate(157.5)"/>
      <use href="#t" transform="rotate(165)"/><use href="#t" transform="rotate(172.5)"/><use href="#t" transform="rotate(180)"/>
      <use href="#t" transform="rotate(187.5)"/><use href="#t" transform="rotate(195)"/><use href="#t" transform="rotate(202.5)"/>
      <use href="#t" transform="rotate(210)"/><use href="#t" transform="rotate(217.5)"/><use href="#t" transform="rotate(225)"/>
      <use href="#t" transform="rotate(232.5)"/><use href="#t" transform="rotate(240)"/><use href="#t" transform="rotate(247.5)"/>
      <use href="#t" transform="rotate(255)"/><use href="#t" transform="rotate(262.5)"/><use href="#t" transform="rotate(270)"/>
      <use href="#t" transform="rotate(277.5)"/><use href="#t" transform="rotate(285)"/><use href="#t" transform="rotate(292.5)"/>
      <use href="#t" transform="rotate(300)"/><use href="#t" transform="rotate(307.5)"/><use href="#t" transform="rotate(315)"/>
      <use href="#t" transform="rotate(322.5)"/><use href="#t" transform="rotate(330)"/><use href="#t" transform="rotate(337.5)"/>
      <use href="#t" transform="rotate(345)"/><use href="#t" transform="rotate(352.5)"/>
    </g>
    <circle cx="64" cy="64" r="41" fill="none" stroke="#c2410c" stroke-width="2"/>
    <path fill="#c2410c" d="M44 92 L60 36 h8 L52 92 Z"/>
    <path fill="#c2410c" d="M84 92 L68 36 h-8 L76 92 Z"/>
    <rect fill="#c2410c" x="48" y="70" width="32" height="8" rx="1"/>
    <circle cx="64" cy="74" r="2.2" fill="#fbf7ef"/>
  </g>
  <text x="152" y="86" font-family="'Instrument Serif', 'Iowan Old Style', 'Palatino Linotype', Georgia, serif" font-size="80" font-weight="400" letter-spacing="4" fill="currentColor">AXIOM</text>
</svg>
